<?xml version="1.0" encoding="UTF-8" standalone="no"?>
<!DOCTYPE svg PUBLIC "-//W3C//DTD SVG 1.1//EN"
 "http://www.w3.org/Graphics/SVG/1.1/DTD/svg11.dtd">
<!-- Generated by graphviz version 2.40.1 (20161225.0304)
 -->
<!-- Title: %3 Pages: 1 -->
<svg width="694pt" height="244pt"
 viewBox="0.00 0.00 693.50 244.00" xmlns="http://www.w3.org/2000/svg" xmlns:xlink="http://www.w3.org/1999/xlink">
<g id="graph0" class="graph" transform="scale(1 1) rotate(0) translate(4 240)">
<title>%3</title>
<polygon fill="#ffffff" stroke="transparent" points="-4,4 -4,-240 689.5,-240 689.5,4 -4,4"/>
<!-- 1 -->
<g id="node1" class="node">
<title>1</title>
<polygon fill="#fc1400" stroke="#fc1400" points="354,-236 1,-236 1,-184 354,-184 354,-236"/>
<text text-anchor="middle" x="177.5" y="-224" font-family="Arial" font-size="10.00" fill="#ffffff">CheckPointToSetSectors(Point, std::vector&lt;Sector, std::allocator&lt;Sector&gt; &gt;)</text>
<text text-anchor="middle" x="177.5" y="-213" font-family="Arial" font-size="10.00" fill="#ffffff">98.11%</text>
<text text-anchor="middle" x="177.5" y="-202" font-family="Arial" font-size="10.00" fill="#ffffff">(27.65%)</text>
<text text-anchor="middle" x="177.5" y="-191" font-family="Arial" font-size="10.00" fill="#ffffff">30965414×</text>
</g>
<!-- 1&#45;&gt;1 -->
<g id="edge1" class="edge">
<title>1&#45;&gt;1</title>
<path fill="none" stroke="#fc1400" stroke-width="3.92" d="M354.2459,-214.6405C359.8279,-213.3886 363,-211.8418 363,-210 363,-209.8849 362.9876,-209.7709 362.963,-209.6581"/>
<polygon fill="#fc1400" stroke="#fc1400" stroke-width="3.92" points="364.6575,-206.6304 354.2459,-205.3595 361.5925,-212.8458 364.6575,-206.6304"/>
<text text-anchor="middle" x="387.5" y="-207.5" font-family="Arial" font-size="10.00" fill="#fc1400">30965414×</text>
</g>
<!-- 2 -->
<g id="node2" class="node">
<title>2</title>
<polygon fill="#2cbd09" stroke="#2cbd09" points="175,-144 0,-144 0,-92 175,-92 175,-144"/>
<text text-anchor="middle" x="87.5" y="-132" font-family="Arial" font-size="10.00" fill="#ffffff">CreateRandomPointInSector(Sector)</text>
<text text-anchor="middle" x="87.5" y="-121" font-family="Arial" font-size="10.00" fill="#ffffff">54.92%</text>
<text text-anchor="middle" x="87.5" y="-110" font-family="Arial" font-size="10.00" fill="#ffffff">(42.05%)</text>
<text text-anchor="middle" x="87.5" y="-99" font-family="Arial" font-size="10.00" fill="#ffffff">32003275×</text>
</g>
<!-- 1&#45;&gt;2 -->
<g id="edge2" class="edge">
<title>1&#45;&gt;2</title>
<path fill="none" stroke="#2cbd09" stroke-width="2.2" d="M151.9503,-183.8826C141.4998,-173.1998 129.3162,-160.7454 118.373,-149.559"/>
<polygon fill="#2cbd09" stroke="#2cbd09" stroke-width="2.2" points="120.1398,-147.6613 113.1135,-144.1827 116.4369,-151.2837 120.1398,-147.6613"/>
<text text-anchor="middle" x="168" y="-167" font-family="Arial" font-size="10.00" fill="#2cbd09">54.92%</text>
<text text-anchor="middle" x="168" y="-156" font-family="Arial" font-size="10.00" fill="#2cbd09">32003275×</text>
</g>
<!-- 3 -->
<g id="node3" class="node">
<title>3</title>
<polygon fill="#0c5887" stroke="#0c5887" points="353,-144 184,-144 184,-92 353,-92 353,-144"/>
<text text-anchor="middle" x="268.5" y="-132" font-family="Arial" font-size="10.00" fill="#ffffff">CheckPointToSector(Point, Sector)</text>
<text text-anchor="middle" x="268.5" y="-121" font-family="Arial" font-size="10.00" fill="#ffffff">15.53%</text>
<text text-anchor="middle" x="268.5" y="-110" font-family="Arial" font-size="10.00" fill="#ffffff">(15.53%)</text>
<text text-anchor="middle" x="268.5" y="-99" font-family="Arial" font-size="10.00" fill="#ffffff">35152278×</text>
</g>
<!-- 1&#45;&gt;3 -->
<g id="edge3" class="edge">
<title>1&#45;&gt;3</title>
<path fill="none" stroke="#0c5887" stroke-width=".62" d="M203.3335,-183.8826C214.6687,-172.4228 228.0203,-158.9245 239.6771,-147.1397"/>
<polygon fill="#0c5887" stroke="#0c5887" stroke-width=".62" points="240.8297,-147.9154 242.6019,-144.1827 238.8888,-145.9956 240.8297,-147.9154"/>
<text text-anchor="middle" x="258" y="-167" font-family="Arial" font-size="10.00" fill="#0c5887">15.53%</text>
<text text-anchor="middle" x="258" y="-156" font-family="Arial" font-size="10.00" fill="#0c5887">35152278×</text>
</g>
<!-- 4 -->
<g id="node4" class="node">
<title>4</title>
<polygon fill="#0d4a83" stroke="#0d4a83" points="147,-52 28,-52 28,0 147,0 147,-52"/>
<text text-anchor="middle" x="87.5" y="-40" font-family="Arial" font-size="10.00" fill="#ffffff">rand_sse(unsigned int*)</text>
<text text-anchor="middle" x="87.5" y="-29" font-family="Arial" font-size="10.00" fill="#ffffff">12.88%</text>
<text text-anchor="middle" x="87.5" y="-18" font-family="Arial" font-size="10.00" fill="#ffffff">(12.88%)</text>
<text text-anchor="middle" x="87.5" y="-7" font-family="Arial" font-size="10.00" fill="#ffffff">33989586×</text>
</g>
<!-- 2&#45;&gt;4 -->
<g id="edge4" class="edge">
<title>2&#45;&gt;4</title>
<path fill="none" stroke="#0d4a83" stroke-width=".52" d="M87.5,-91.8826C87.5,-80.7142 87.5,-67.6095 87.5,-56.0418"/>
<polygon fill="#0d4a83" stroke="#0d4a83" stroke-width=".52" points="88.7601,-55.7827 87.5,-52.1827 86.2401,-55.7828 88.7601,-55.7827"/>
<text text-anchor="middle" x="112" y="-75" font-family="Arial" font-size="10.00" fill="#0d4a83">12.88%</text>
<text text-anchor="middle" x="112" y="-64" font-family="Arial" font-size="10.00" fill="#0d4a83">33989586×</text>
</g>
<!-- 5 -->
<g id="node5" class="node">
<title>5</title>
<polygon fill="#0d1074" stroke="#0d1074" points="550.5,-230.5 430.5,-230.5 430.5,-189.5 550.5,-189.5 550.5,-230.5"/>
<text text-anchor="middle" x="490.5" y="-218.5" font-family="Arial" font-size="10.00" fill="#ffffff">srand_sse(unsigned int)</text>
<text text-anchor="middle" x="490.5" y="-207.5" font-family="Arial" font-size="10.00" fill="#ffffff">0.76%</text>
<text text-anchor="middle" x="490.5" y="-196.5" font-family="Arial" font-size="10.00" fill="#ffffff">(0.76%)</text>
</g>
<!-- 6 -->
<g id="node6" class="node">
<title>6</title>
<polygon fill="#0d0f73" stroke="#0d0f73" points="685.5,-230.5 559.5,-230.5 559.5,-189.5 685.5,-189.5 685.5,-230.5"/>
<text text-anchor="middle" x="622.5" y="-218.5" font-family="Arial" font-size="10.00" fill="#ffffff">ReadDataFromFile(char*)</text>
<text text-anchor="middle" x="622.5" y="-207.5" font-family="Arial" font-size="10.00" fill="#ffffff">0.57%</text>
<text text-anchor="middle" x="622.5" y="-196.5" font-family="Arial" font-size="10.00" fill="#ffffff">(0.38%)</text>
</g>
</g>
</svg>
