<?xml version="1.0" encoding="UTF-8" standalone="no"?>
<!DOCTYPE svg PUBLIC "-//W3C//DTD SVG 1.1//EN"
 "http://www.w3.org/Graphics/SVG/1.1/DTD/svg11.dtd">
<!-- Generated by graphviz version 2.40.1 (20161225.0304)
 -->
<!-- Title: %3 Pages: 1 -->
<svg width="655pt" height="233pt"
 viewBox="0.00 0.00 654.50 233.00" xmlns="http://www.w3.org/2000/svg" xmlns:xlink="http://www.w3.org/1999/xlink">
<g id="graph0" class="graph" transform="scale(1 1) rotate(0) translate(4 229)">
<title>%3</title>
<polygon fill="#ffffff" stroke="transparent" points="-4,4 -4,-229 650.5,-229 650.5,4 -4,4"/>
<!-- 1 -->
<g id="node1" class="node">
<title>1</title>
<polygon fill="#fb1b01" stroke="#fb1b01" points="353,-225 0,-225 0,-184 353,-184 353,-225"/>
<text text-anchor="middle" x="176.5" y="-213" font-family="Arial" font-size="10.00" fill="#ffffff">CheckIntersectionSetOfSectors(std::vector&lt;Sector, std::allocator&lt;Sector&gt; &gt;)</text>
<text text-anchor="middle" x="176.5" y="-202" font-family="Arial" font-size="10.00" fill="#ffffff">97.42%</text>
<text text-anchor="middle" x="176.5" y="-191" font-family="Arial" font-size="10.00" fill="#ffffff">(29.43%)</text>
</g>
<!-- 2 -->
<g id="node2" class="node">
<title>2</title>
<polygon fill="#0ba74c" stroke="#0ba74c" points="227,-144 58,-144 58,-92 227,-92 227,-144"/>
<text text-anchor="middle" x="142.5" y="-132" font-family="Arial" font-size="10.00" fill="#ffffff">CheckPointToSector(Point, Sector)</text>
<text text-anchor="middle" x="142.5" y="-121" font-family="Arial" font-size="10.00" fill="#ffffff">39.54%</text>
<text text-anchor="middle" x="142.5" y="-110" font-family="Arial" font-size="10.00" fill="#ffffff">(39.54%)</text>
<text text-anchor="middle" x="142.5" y="-99" font-family="Arial" font-size="10.00" fill="#ffffff">375151973×</text>
</g>
<!-- 1&#45;&gt;2 -->
<g id="edge1" class="edge">
<title>1&#45;&gt;2</title>
<path fill="none" stroke="#0ba74c" stroke-width="1.58" d="M168.2695,-183.5608C164.323,-173.5202 159.508,-161.2704 155.113,-150.089"/>
<polygon fill="#0ba74c" stroke="#0ba74c" stroke-width="1.58" points="157.0796,-149.0645 152.7227,-144.0078 152.9753,-150.6778 157.0796,-149.0645"/>
<text text-anchor="middle" x="192.5" y="-167" font-family="Arial" font-size="10.00" fill="#0ba74c">39.49%</text>
<text text-anchor="middle" x="192.5" y="-156" font-family="Arial" font-size="10.00" fill="#0ba74c">374689660×</text>
</g>
<!-- 3 -->
<g id="node3" class="node">
<title>3</title>
<polygon fill="#0c9885" stroke="#0c9885" points="411,-144 236,-144 236,-92 411,-92 411,-144"/>
<text text-anchor="middle" x="323.5" y="-132" font-family="Arial" font-size="10.00" fill="#ffffff">CreateRandomPointInSector(Sector)</text>
<text text-anchor="middle" x="323.5" y="-121" font-family="Arial" font-size="10.00" fill="#ffffff">28.28%</text>
<text text-anchor="middle" x="323.5" y="-110" font-family="Arial" font-size="10.00" fill="#ffffff">(25.52%)</text>
<text text-anchor="middle" x="323.5" y="-99" font-family="Arial" font-size="10.00" fill="#ffffff">49986039×</text>
</g>
<!-- 1&#45;&gt;3 -->
<g id="edge2" class="edge">
<title>1&#45;&gt;3</title>
<path fill="none" stroke="#0c9885" stroke-width="1.13" d="M211.7102,-183.7811C230.5042,-172.722 253.9323,-158.9361 274.4791,-146.8457"/>
<polygon fill="#0c9885" stroke="#0c9885" stroke-width="1.13" points="275.4612,-148.4201 279.0883,-144.1334 273.5796,-145.2226 275.4612,-148.4201"/>
<text text-anchor="middle" x="287" y="-167" font-family="Arial" font-size="10.00" fill="#0c9885">28.28%</text>
<text text-anchor="middle" x="287" y="-156" font-family="Arial" font-size="10.00" fill="#0c9885">49986039×</text>
</g>
<!-- 4 -->
<g id="node4" class="node">
<title>4</title>
<polygon fill="#0d1876" stroke="#0d1876" points="383,-52 264,-52 264,0 383,0 383,-52"/>
<text text-anchor="middle" x="323.5" y="-40" font-family="Arial" font-size="10.00" fill="#ffffff">rand_sse(unsigned int*)</text>
<text text-anchor="middle" x="323.5" y="-29" font-family="Arial" font-size="10.00" fill="#ffffff">2.76%</text>
<text text-anchor="middle" x="323.5" y="-18" font-family="Arial" font-size="10.00" fill="#ffffff">(2.76%)</text>
<text text-anchor="middle" x="323.5" y="-7" font-family="Arial" font-size="10.00" fill="#ffffff">49987839×</text>
</g>
<!-- 3&#45;&gt;4 -->
<g id="edge3" class="edge">
<title>3&#45;&gt;4</title>
<path fill="none" stroke="#0d1876" stroke-width=".5" d="M323.5,-91.8826C323.5,-80.6171 323.5,-67.3815 323.5,-55.7404"/>
<polygon fill="#0d1876" stroke="#0d1876" stroke-width=".5" points="324.7251,-55.6827 323.5,-52.1827 322.2751,-55.6828 324.7251,-55.6827"/>
<text text-anchor="middle" x="348" y="-75" font-family="Arial" font-size="10.00" fill="#0d1876">2.76%</text>
<text text-anchor="middle" x="348" y="-64" font-family="Arial" font-size="10.00" fill="#0d1876">49986039×</text>
</g>
<!-- 5 -->
<g id="node5" class="node">
<title>5</title>
<polygon fill="#0d1375" stroke="#0d1375" points="646.5,-225 362.5,-225 362.5,-184 646.5,-184 646.5,-225"/>
<text text-anchor="middle" x="504.5" y="-213" font-family="Arial" font-size="10.00" fill="#ffffff">PrintSetSectors(std::vector&lt;Sector, std::allocator&lt;Sector&gt; &gt;)</text>
<text text-anchor="middle" x="504.5" y="-202" font-family="Arial" font-size="10.00" fill="#ffffff">1.61%</text>
<text text-anchor="middle" x="504.5" y="-191" font-family="Arial" font-size="10.00" fill="#ffffff">(1.61%)</text>
</g>
</g>
</svg>
